<svg xmlns="http://www.w3.org/2000/svg" width="512" height="512" viewBox="0 0 512 512" style="" data-svgdocument="" id="_zOxWbdYTk3MajoFub6IFm" class="fl-svgdocument" x="0" y="0" data-bbox="83.61 48 343.116 416">
  <rect data-fl-background="" x="0" y="0" width="512" height="512" fill="#f1f1f1" />
  <path text="Innovate" text-anchor="middle" font-size="100" letter-spacing="0" side="left" offset="0.5" dx="0" dy="0" space="preserve" href="" font-family="Teko" font-scale="contain" transform="matrix(1.3874475899439884, 0, 0, 1.3874475899439884, 253.29446026299314, 357.9990238693376)" x="0" y="0" fill="#076cf3" data-fl-textpath="" id="_roHAh7wUbk1G41yQJhl1q" font-weight="400" font-style="normal" d="M-122.3 0L-122.3-62.6L-113.3-62.6L-113.3 0L-122.3 0ZM-87.7-48.8L-87.7-48.8L-84.2-48.8Q-75.1-48.8 -75.1-39.9L-75.1-39.9L-75.1 0L-84.1 0L-84.1-38.6Q-84.1-40.4 -84.7-40.95Q-85.3-41.5 -87.1-41.5L-87.1-41.5L-90.6-41.5Q-92.4-41.5 -93.15-40.7Q-93.9-39.9 -93.9-38L-93.9-38L-93.9 0L-102.9 0L-102.9-48.8L-93.9-48.8L-93.9-44.9Q-92.6-48.8 -87.7-48.8ZM-51.2-48.8L-51.2-48.8L-47.7-48.8Q-38.6-48.8 -38.6-39.9L-38.6-39.9L-38.6 0L-47.6 0L-47.6-38.6Q-47.6-40.4 -48.2-40.95Q-48.8-41.5 -50.6-41.5L-50.6-41.5L-54.1-41.5Q-55.9-41.5 -56.65-40.7Q-57.4-39.9 -57.4-38L-57.4-38L-57.4 0L-66.4 0L-66.4-48.8L-57.4-48.8L-57.4-44.9Q-56.1-48.8 -51.2-48.8ZM-21.2-48.8L-21.2-48.8L-10.5-48.8Q-1.2-48.8 -1.2-39.9L-1.2-39.9L-1.2-8.8Q-1.2 0 -10.5 0L-10.5 0L-21.2 0Q-30.4 0 -30.4-8.8L-30.4-8.8L-30.4-39.9Q-30.4-48.8 -21.2-48.8ZM-10.1-10.1L-10.1-10.1L-10.1-38.7Q-10.1-40.5 -10.7-41.1Q-11.3-41.7 -13.1-41.7L-13.1-41.7L-18.6-41.7Q-20.4-41.7 -20.95-41.1Q-21.5-40.5 -21.5-38.7L-21.5-38.7L-21.5-10.1Q-21.5-8.3 -20.95-7.7Q-20.4-7.1 -18.6-7.1L-18.6-7.1L-13.1-7.1Q-11.3-7.1 -10.7-7.7Q-10.1-8.3 -10.1-10.1ZM 3.1-48.8L 12.1-48.8L 18.5-7.6L 25-48.8L 34-48.8L 25 0L 12.1 0L 3.1-48.8ZM 57-44.9L 57-48.8L 66-48.8L 66 0L 57 0L 57-3.9Q 55.7 0  50.8 0L 50.8 0L 47.2 0Q 38.2 0  38.2-8.8L 38.2-8.8L 38.2-39.9Q 38.2-48.8  47.2-48.8L 47.2-48.8L 50.8-48.8Q 55.7-48.8  57-44.9L 57-44.9ZM 50.2-7.3L 50.2-7.3L 53.7-7.3Q 55.5-7.3  56.25-8.1Q 57-8.9  57-10.8L 57-10.8L 57-38Q 57-39.9  56.25-40.7Q 55.5-41.5  53.7-41.5L 53.7-41.5L 50.2-41.5Q 48.4-41.5  47.8-40.95Q 47.2-40.4  47.2-38.6L 47.2-38.6L 47.2-10.2Q 47.2-8.4  47.8-7.85Q 48.4-7.3  50.2-7.3ZM 91.3-48.8L 91.3-41.5L 84.6-41.5L 84.6-10.6Q 84.6-8.8  85.15-8.25Q 85.7-7.7  87.5-7.7L 87.5-7.7L 91.3-7.7L 91.3 0L 84.9 0Q 75.5 0  75.5-8.8L 75.5-8.8L 75.5-41.5L 70.9-41.5L 70.9-48.8L 75.5-48.8L 75.5-57.1L 84.6-57.1L 84.6-48.8L 91.3-48.8ZM 105.8-48.8L 105.8-48.8L 115.6-48.8Q 125-48.8  125-39.9L 125-39.9L 125-21.6L 105.3-21.6L 105.3-10Q 105.3-8.3  105.9-7.7Q 106.5-7.1  108.3-7.1L 108.3-7.1L 112.9-7.1Q 114.7-7.1  115.3-7.7Q 115.9-8.3  115.9-10.1L 115.9-10.1L 115.9-14.1L 124.7-14.1L 124.7-8.8Q 124.7 0  115.4 0L 115.4 0L 105.8 0Q 96.5 0  96.5-8.8L 96.5-8.8L 96.5-39.9Q 96.5-48.8  105.8-48.8ZM 105.3-38.8L 105.3-28.2L 116.1-28.2L 116.1-38.8Q 116.1-40.5  115.55-41.1Q 115-41.7  113.2-41.7L 113.2-41.7L 108.3-41.7Q 106.5-41.7  105.9-41.1Q 105.3-40.5  105.3-38.8L 105.3-38.8Z" style="" />
  <path text="MSP" text-anchor="middle" font-size="100" letter-spacing="0" side="left" offset="0.5" dx="0" dy="0" space="preserve" href="" font-family="Teko" font-scale="contain" transform="matrix(1.3874475899439884, 0, 0, 1.3874475899439884, 254.6819266880048, 464)" x="0" y="0" fill="#076cf3" data-fl-textpath="" id="_roHAh7wUbk1G41yQJhl1q" font-weight="400" font-style="normal" d="M-49.65-45.7L-49.65 0L-57.55 0L-57.55-62.6L-47.65-62.6L-36.95-23.8L-26.25-62.6L-16.35-62.6L-16.35 0L-24.25 0L-24.25-45.8L-32.85-13.6L-41.05-13.6L-49.65-45.7ZM 12.05-10.2L 12.05-10.2L 12.05-25.5Q 12.05-27.3  11.5-27.85Q 10.95-28.4  9.15-28.4L 9.15-28.4L 1.75-28.4Q-7.35-28.4 -7.35-37.3L-7.35-37.3L-7.35-53.8Q-7.35-62.6  1.95-62.6L 1.95-62.6L 11.75-62.6Q 21.05-62.6  21.05-53.8L 21.05-53.8L 21.05-44.6L 11.95-44.6L 11.95-52.4Q 11.95-54.2  11.35-54.75Q 10.75-55.3  8.95-55.3L 8.95-55.3L 4.75-55.3Q 2.95-55.3  2.35-54.75Q 1.75-54.2  1.75-52.4L 1.75-52.4L 1.75-38.5Q 1.75-36.7  2.35-36.15Q 2.95-35.6  4.75-35.6L 4.75-35.6L 12.05-35.6Q 21.25-35.6  21.25-26.8L 21.25-26.8L 21.25-8.8Q 21.25 0  11.85 0L 11.85 0L 2.15 0Q-7.15 0 -7.15-8.8L-7.15-8.8L-7.15-18L 1.95-18L 1.95-10.2Q 1.95-8.4  2.55-7.85Q 3.15-7.3  4.95-7.3L 4.95-7.3L 9.15-7.3Q 10.95-7.3  11.5-7.85Q 12.05-8.4  12.05-10.2ZM 30.15 0L 30.15-62.6L 50.65-62.6Q 59.95-62.6  59.95-53.8L 59.95-53.8L 59.95-33Q 59.95-24.2  50.65-24.2L 50.65-24.2L 39.15-24.2L 39.15 0L 30.15 0ZM 50.95-34.4L 50.95-34.4L 50.95-52.4Q 50.95-54.2  50.35-54.75Q 49.75-55.3  47.95-55.3L 47.95-55.3L 39.15-55.3L 39.15-31.4L 47.95-31.4Q 49.75-31.4  50.35-32Q 50.95-32.6  50.95-34.4Z" style="" />
  <g transform="matrix(2.2515466121500523, 0, 0, 2.2515466121500523, 143.42153590591712, 31.1809462060113)" fill="#076cf3">
    <path d="M47.495 62.192c-5.268-2.254-10.214-4.752-14.785-7.483c-1.702 1.702-4.004 2.764-6.545 2.764  c-0.526 0-1.033-0.075-1.537-0.162c-3.598 6.751-5.429 13.429-5.474 19.973c1.661 2.097 3.509 4.018 5.518 5.743  c7.979-2.768 16.039-7.675 23.873-14.618c-0.739-1.403-1.196-2.986-1.196-4.696C47.349 63.191 47.42 62.691 47.495 62.192z" transform="matrix(1, 0, 0, 1, 0, 0)" fill="#076cf3" />
    <path d="M16.695 47.617c0-1.435 0.312-2.789 0.844-4.02c-2.16-1.965-4.168-3.995-5.998-6.09C10.395 41.459 9.771 45.651 9.771 50  c0 7.493 1.848 14.523 5.064 20.638c0.851-5.139 2.673-10.31 5.366-15.43C18.079 53.399 16.695 50.688 16.695 47.617z" transform="matrix(1, 0, 0, 1, 0, 0)" fill="#076cf3" />
    <path d="M48.771 16.689c2.771 0 5.245 1.268 6.978 3.249c4.172-2.608 8.57-5.103 13.221-7.439C63.315 9.296 56.862 7.47 50.001 7.47  c-7.941 0-15.322 2.465-21.558 6.662c4.562 1.859 8.945 3.885 13.179 6.023C43.359 18.052 45.903 16.689 48.771 16.689z" transform="matrix(1, 0, 0, 1, 0, 0)" fill="#076cf3" />
    <path d="M57.771 29.458c5.068 3.328 9.793 6.843 14.107 10.518c3.301-5.372 6.357-11.074 9.131-17.068  c-2.145-2.739-4.633-5.155-7.352-7.253c-5.566 2.684-10.807 5.576-15.686 8.642c0.162 0.726 0.27 1.472 0.27 2.248  C58.241 27.565 58.048 28.531 57.771 29.458z" transform="matrix(1, 0, 0, 1, 0, 0)" fill="#076cf3" />
    <path d="M48.771 36.398c-1.918 0-3.7-0.605-5.193-1.631c-3.261 2.766-6.253 5.62-8.929 8.56c0.61 1.303 0.984 2.746 0.984 4.29  c0 1.158-0.228 2.255-0.582 3.288c4.347 2.588 9.021 4.989 14.048 7.134c1.717-2.522 4.526-4.184 7.718-4.184  c1.596 0 3.08 0.452 4.402 1.183c2.875-3.54 5.639-7.288 8.25-11.267c-4.232-3.625-8.889-7.101-13.904-10.39  C53.841 35.235 51.438 36.398 48.771 36.398z" transform="matrix(1, 0, 0, 1, 0, 0)" fill="#076cf3" />
    <path d="M72.935 46.858c-2.637 3.978-5.414 7.741-8.311 11.292c1.047 1.584 1.664 3.498 1.664 5.562  c0 0.118-0.031 0.229-0.035 0.346c6.35 1.805 13.016 3.28 19.961 4.37c0.615-1.346 1.162-2.727 1.643-4.146  C83.94 58.279 78.933 52.418 72.935 46.858z" transform="matrix(1, 0, 0, 1, 0, 0)" fill="#076cf3" />
    <path d="M56.817 73.564c-1.951 0-3.766-0.619-5.275-1.676c-7.334 6.49-14.89 11.322-22.45 14.396  c6.099 3.936 13.24 6.245 20.909 6.245c14.316 0 26.854-7.932 33.982-19.841c-6.555-1.096-12.859-2.541-18.898-4.271  C63.474 71.47 60.392 73.564 56.817 73.564z" transform="matrix(1, 0, 0, 1, 0, 0)" fill="#076cf3" />
    <path d="M83.995 27.328c-2.65 5.503-5.533 10.761-8.623 15.738C80.8 48.054 85.509 53.283 89.39 58.66  c0.549-2.796 0.84-5.691 0.84-8.66C90.229 41.655 87.923 33.896 83.995 27.328z" transform="matrix(1, 0, 0, 1, 0, 0)" fill="#076cf3" />
    <path d="M31.517 39.502c2.69-2.901 5.654-5.726 8.881-8.457c-0.676-1.356-1.095-2.872-1.095-4.501c0-0.808 0.119-1.579 0.296-2.33  c-4.906-2.458-10.047-4.745-15.4-6.829c-4.651 4.118-8.391 9.335-10.902 15.263c2.033 2.55 4.37 4.999 6.93 7.359  c1.63-1.381 3.679-2.243 5.939-2.243C28.151 37.764 29.992 38.409 31.517 39.502z" transform="matrix(1, 0, 0, 1, 0, 0)" fill="#076cf3" />
    <path transform="matrix(1, 0, 0, 1, 0, 0)" fill="#0c1842" data-type="circle" data-cx="25.884" data-cy="47.311" data-r="4.675" d="M25.884 47.311m-4.675 0a4.675 4.675 0 1 0 9.35 0a4.675 4.675 0 1 0 -9.35 0" />
    <path transform="matrix(1, 0, 0, 1, 0, 0)" fill="#0c1842" data-type="circle" data-cx="48.984" data-cy="26.41" data-r="4.675" d="M48.984 26.41m-4.675 0a4.675 4.675 0 1 0 9.35 0a4.675 4.675 0 1 0 -9.35 0" />
    <path transform="matrix(1, 0, 0, 1, 0, 0)" fill="#0c1842" data-type="circle" data-cx="56.547" data-cy="63.673" data-r="4.675" d="M56.547 63.673m-4.675 0a4.675 4.675 0 1 0 9.35 0a4.675 4.675 0 1 0 -9.35 0" />
  </g>
</svg>