<?xml version="1.0" standalone="no"?>
<!DOCTYPE svg PUBLIC "-//W3C//DTD SVG 20010904//EN"
 "http://www.w3.org/TR/2001/REC-SVG-20010904/DTD/svg10.dtd">
<svg version="1.0" xmlns="http://www.w3.org/2000/svg"
 width="1000.000000pt" height="1000.000000pt" viewBox="0 0 1000.000000 1000.000000"
 preserveAspectRatio="xMidYMid meet">
<metadata>
Created by potrace 1.14, written by Peter Selinger 2001-2017
</metadata>
<g transform="translate(0.000000,1000.000000) scale(0.100000,-0.100000)"
fill="#000000" stroke="none">
<path d="M4877 9044 c-1 -1 -27 -5 -57 -9 -224 -27 -458 -106 -659 -224 l-94
-55 29 -13 c16 -7 94 -41 174 -76 80 -36 196 -90 259 -120 l114 -56 46 41
c160 142 394 142 542 1 33 -31 39 -34 60 -22 13 6 26 15 29 18 3 3 16 12 30
20 14 8 72 42 130 76 58 34 164 92 235 130 72 37 131 69 133 70 2 2 -39 23
-91 48 -170 82 -373 143 -547 163 -56 6 -328 13 -333 8z"/>
<path d="M5910 8614 c-179 -93 -332 -178 -447 -248 l-88 -54 -1 -84 c0 -45 -3
-99 -7 -118 l-7 -35 92 -60 c100 -65 342 -245 453 -336 38 -32 72 -56 76 -53
6 3 83 133 168 284 17 30 76 144 131 253 81 162 98 203 89 218 -14 26 -224
238 -274 276 l-41 31 -144 -74z"/>
<path d="M3790 8522 c-100 -103 -153 -170 -233 -293 -71 -108 -157 -280 -148
-296 24 -44 282 -313 300 -313 5 0 13 5 16 10 9 15 115 66 155 75 86 20 200 2
280 -41 l44 -25 72 73 c85 87 201 197 267 254 l48 41 -21 64 c-20 58 -30 182
-19 228 3 10 -47 39 -161 92 -131 62 -396 178 -496 216 -12 4 -41 -19 -104
-85z"/>
<path d="M4904 8407 c-84 -33 -136 -108 -136 -196 2 -175 205 -265 336 -150
95 83 96 225 3 304 -61 52 -135 68 -203 42z"/>
<path d="M6450 8050 c-72 -144 -185 -348 -262 -476 l-56 -91 112 -110 c102
-101 183 -186 261 -274 47 -53 201 -244 220 -273 10 -15 19 -25 21 -23 8 8 24
112 31 200 30 390 -42 749 -218 1082 -23 44 -43 82 -45 84 -1 2 -30 -52 -64
-119z"/>
<path d="M5219 7870 c-41 -34 -122 -76 -164 -86 -68 -15 -171 -6 -237 21 -34
15 -70 29 -78 31 -17 6 -102 -68 -277 -241 l-123 -121 21 -59 c23 -66 28 -190
10 -238 -6 -16 -11 -32 -11 -36 0 -17 354 -202 579 -302 l34 -15 48 51 c114
121 269 159 429 105 63 -21 64 -21 79 -2 138 175 349 469 340 475 -2 2 -42 35
-89 74 -105 87 -238 187 -339 256 -42 28 -78 54 -81 57 -14 14 -87 60 -96 60
-5 -1 -25 -14 -45 -30z"/>
<path d="M3306 7653 c-22 -92 -33 -147 -41 -212 -3 -23 -7 -60 -10 -83 -8 -60
-8 -280 -1 -358 11 -106 35 -239 62 -337 43 -162 137 -388 156 -377 5 3 7 8 5
11 -8 8 59 253 98 358 20 55 58 143 84 195 l46 95 -37 39 c-105 112 -145 293
-95 431 l15 41 -133 132 -133 133 -16 -68z"/>
<path d="M3860 7474 c-48 -27 -62 -42 -88 -94 -61 -118 22 -271 157 -287 83
-10 150 23 200 95 22 31 26 48 26 107 0 60 -4 76 -27 108 -41 61 -90 89 -162
93 -51 2 -69 -1 -106 -22z"/>
<path d="M5969 7233 c-56 -82 -188 -265 -198 -273 -3 -3 -29 -36 -58 -73 l-52
-68 29 -62 c18 -37 33 -89 37 -132 l8 -69 125 -33 c69 -18 177 -45 240 -59
125 -28 121 -27 230 -49 41 -8 84 -16 95 -19 75 -15 168 -27 178 -23 8 3 28
43 46 90 l33 86 -57 83 c-76 109 -140 190 -249 318 -103 120 -288 313 -328
341 l-26 19 -53 -77z"/>
<path d="M4206 6930 c-64 -50 -157 -80 -245 -80 l-68 0 -51 -112 c-89 -201
-142 -369 -158 -503 -4 -27 -8 -53 -10 -56 -2 -3 -6 -49 -10 -103 l-6 -96 38
-48 c21 -26 76 -84 122 -128 l83 -82 77 30 c296 113 669 344 929 576 l42 37
-24 70 c-17 50 -23 88 -22 136 2 74 7 69 -93 112 -144 63 -335 160 -515 262
l-40 23 -49 -38z"/>
<path d="M5220 6764 c-41 -18 -96 -78 -111 -121 -15 -48 -6 -135 20 -177 46
-74 154 -113 237 -86 84 28 144 110 144 197 0 49 -41 132 -77 159 -59 44 -148
55 -213 28z"/>
<path d="M5644 6314 c-116 -160 -325 -217 -496 -135 l-67 32 -93 -78 c-269
-226 -529 -391 -822 -523 l-69 -31 54 -32 c182 -109 418 -194 619 -222 25 -3
59 -8 75 -11 42 -7 306 -7 341 0 16 3 52 8 79 11 205 23 500 138 700 274 209
143 418 363 538 567 6 11 -19 18 -148 40 -16 3 -61 12 -100 21 -38 8 -79 16
-90 19 -11 2 -31 6 -45 9 -14 3 -34 7 -45 9 -36 7 -299 75 -346 89 l-47 14
-38 -53z"/>
<path d="M1650 3840 l0 -849 120 0 120 1 1 31 c0 43 0 1616 0 1644 -1 21 -4
22 -121 22 l-120 1 0 -850z"/>
<path d="M7010 4427 l0 -114 -52 2 c-29 0 -58 -1 -64 -2 -15 -5 -12 -182 4
-192 7 -4 35 -6 62 -4 l50 3 0 -468 c0 -494 2 -521 47 -581 45 -59 99 -75 248
-76 l130 0 1 102 1 101 -78 4 c-45 2 -83 8 -91 16 -10 10 -12 111 -13 448 0
240 2 439 5 443 3 4 43 7 90 7 l85 0 0 99 0 99 -90 1 -90 0 0 113 0 112 -122
0 -123 0 0 -113z"/>
<path d="M2189 4312 c-12 -2 -14 -94 -13 -650 1 -356 2 -653 3 -659 1 -10 32
-13 121 -13 l120 0 0 539 c0 643 -13 585 133 586 79 0 99 -3 114 -17 16 -17
17 -58 19 -555 1 -296 2 -541 3 -545 0 -5 55 -8 121 -8 l120 0 -1 568 c-1 615
-2 629 -55 686 -49 52 -104 68 -228 69 -127 1 -175 -15 -207 -66 l-18 -30 -3
49 -3 48 -106 1 c-58 0 -112 -1 -120 -3z"/>
<path d="M3171 4310 c-4 -3 -7 -300 -7 -660 l1 -655 120 0 120 0 2 490 c2 270
3 511 3 536 0 31 6 55 19 70 17 22 26 24 115 24 76 0 99 -4 112 -17 16 -15 17
-65 17 -562 l1 -545 120 2 121 2 1 567 c0 494 -2 574 -15 611 -21 57 -39 81
-81 105 -46 26 -88 34 -188 36 -105 2 -165 -15 -194 -55 l-23 -31 -5 43 -5 43
-113 1 c-63 0 -117 -2 -121 -5z"/>
<path d="M4377 4313 c-1 0 -20 -2 -42 -4 -44 -3 -111 -32 -136 -59 -9 -9 -25
-32 -35 -51 -18 -32 -19 -69 -22 -523 -3 -540 -1 -565 57 -620 56 -54 113 -65
336 -65 169 0 209 3 255 19 66 22 113 71 129 135 17 67 15 966 -2 1024 -18 58
-76 115 -134 132 -36 10 -397 21 -406 12z m299 -218 c12 -19 14 -86 12 -453
-2 -334 -6 -434 -16 -444 -17 -17 -257 -17 -275 1 -9 9 -13 117 -15 448 -2
394 -1 438 14 454 13 14 34 19 103 21 128 4 160 0 177 -27z"/>
<path d="M5054 4308 c-5 -8 1 -50 20 -135 2 -10 7 -38 11 -63 4 -25 9 -54 11
-65 10 -52 26 -138 30 -162 2 -16 9 -48 14 -73 5 -25 12 -61 15 -80 5 -30 38
-209 51 -275 2 -11 7 -33 9 -50 3 -16 10 -55 16 -85 5 -30 16 -91 24 -135 8
-44 17 -91 20 -105 3 -14 8 -40 11 -58 l6 -32 176 2 c197 3 175 -7 188 88 3
25 8 47 9 50 2 3 11 46 19 95 9 50 18 101 21 115 3 14 12 61 20 105 8 44 17
94 20 110 3 17 12 64 19 105 8 41 17 91 20 110 3 19 8 46 11 60 26 124 85 466
82 474 -2 6 -49 11 -120 11 l-116 0 -6 -35 c-3 -19 -8 -53 -11 -75 -3 -22 -7
-47 -9 -55 -2 -8 -7 -35 -10 -60 -3 -25 -15 -101 -26 -170 -11 -69 -22 -138
-25 -155 -3 -16 -9 -55 -14 -85 -5 -30 -11 -71 -14 -90 -7 -48 -46 -290 -51
-315 -2 -11 -4 -31 -4 -44 -1 -36 -8 -22 -16 29 -3 25 -13 86 -21 135 -17 102
-20 122 -29 185 -3 25 -13 88 -21 140 -9 52 -17 107 -19 121 -2 14 -15 95 -29
180 -13 85 -28 179 -31 210 -4 31 -11 62 -15 69 -6 10 -38 14 -120 14 -62 1
-114 -2 -116 -6z"/>
<path d="M6168 4305 c-67 -14 -91 -27 -121 -68 -47 -62 -49 -80 -49 -566 0
-462 3 -524 28 -573 39 -76 95 -100 243 -105 134 -3 187 13 221 69 l20 33 0
-52 0 -52 120 0 120 1 0 662 0 661 -120 0 -120 0 -1 -35 c-1 -19 -1 -42 0 -50
1 -8 -6 -3 -16 12 -31 48 -83 69 -182 71 -50 2 -114 -2 -143 -8z m285 -194
c53 -2 55 -23 55 -470 l-1 -405 -23 -23 c-21 -21 -32 -23 -111 -23 -143 0
-130 -46 -129 464 1 407 2 436 19 448 16 12 77 15 190 9z"/>
<path d="M7817 4313 c-1 0 -20 -2 -42 -4 -53 -4 -128 -41 -153 -76 -11 -16
-25 -47 -31 -71 -16 -58 -16 -967 0 -1025 15 -58 72 -111 139 -131 44 -13 93
-16 255 -13 184 2 203 4 241 24 53 28 91 73 105 125 11 44 17 207 7 223 -5 8
-161 12 -224 6 -6 -1 -10 -31 -10 -77 0 -105 -7 -110 -148 -109 -83 1 -110 4
-122 17 -13 13 -16 42 -16 169 0 85 0 166 1 180 l1 26 266 -1 265 -1 -3 295
c-3 287 -4 296 -26 335 -27 46 -73 81 -128 97 -30 8 -370 19 -377 11z m259
-198 c30 -7 34 -29 34 -205 l0 -155 -139 0 c-77 0 -143 3 -147 7 -9 10 -9 296
0 325 8 24 25 31 86 35 45 4 139 0 166 -7z"/>
<path d="M3430 1770 l0 -851 108 3 107 3 0 607 c0 334 3 602 6 595 4 -7 37
-127 74 -267 37 -140 78 -293 91 -340 13 -47 31 -116 42 -155 l19 -70 111 -3
110 -3 16 53 c14 52 62 230 132 493 71 268 83 309 84 285 1 -14 2 -288 3 -610
l2 -585 107 -2 107 -3 -2 848 -2 847 -132 3 -132 2 -20 -68 c-12 -37 -34 -117
-50 -177 -16 -61 -68 -252 -116 -425 -48 -173 -91 -328 -95 -345 l-7 -30 -11
25 c-5 14 -26 84 -46 155 -66 245 -197 720 -211 765 -7 25 -16 57 -19 72 l-6
26 -135 1 -135 2 0 -851z"/>
<path d="M4926 2600 c-59 -23 -81 -43 -110 -95 -20 -38 -21 -52 -21 -350 0
-302 1 -311 22 -352 26 -48 72 -85 125 -100 21 -6 106 -12 190 -12 121 -2 156
-5 168 -17 12 -12 15 -57 16 -266 1 -307 10 -288 -134 -288 -138 0 -137 -2
-139 152 -1 67 -2 127 -2 131 -1 4 -56 6 -123 5 l-123 -3 1 -158 c2 -148 3
-161 28 -210 48 -97 104 -115 356 -115 223 -1 279 12 338 78 43 49 47 78 47
410 0 348 -1 355 -66 418 -45 44 -96 55 -273 57 -178 3 -185 6 -187 74 -1 41
-1 400 0 418 2 33 32 43 124 43 154 0 154 0 151 -172 l-1 -118 123 0 124 0 0
153 c0 220 -26 278 -142 318 -78 27 -420 26 -492 -1z"/>
<path d="M5809 2598 c0 -13 -1 -395 -2 -850 l-2 -827 123 0 122 0 0 328 0 328
183 0 c101 1 200 6 223 12 64 17 107 51 134 106 l24 49 1 339 c1 373 -4 410
-59 468 -58 61 -69 63 -423 66 l-323 4 -1 -23z m551 -198 c6 -9 10 -139 10
-301 0 -231 -3 -289 -14 -305 -13 -17 -29 -19 -160 -21 l-146 -2 0 325 0 325
150 -3 c121 -2 153 -6 160 -18z"/>
</g>
</svg>
